<svg width="24" height="24" viewBox="0 0 24 24" fill="none" xmlns="http://www.w3.org/2000/svg">
<path d="M13.1806 1.90248C14.4707 0.108288 16.8737 -0.481885 18.8481 0.510521L23.3567 2.77658C23.3791 2.78786 23.3862 2.81655 23.3715 2.83695L9.09315 22.6838C9.07036 22.7155 9.1007 22.758 9.13807 22.7468L13.3347 21.486C13.766 21.3564 14.1425 21.0879 14.4054 20.7223L23.3259 8.31984C23.3491 8.28762 23.4 8.30401 23.4 8.34369L23.4 19.6416C23.4 19.672 23.368 19.6917 23.3408 19.6782L18.3526 17.1862C18.3346 17.1772 18.3128 17.1826 18.3011 17.1989L15.0823 21.6709C14.819 22.0366 14.4423 22.305 14.0106 22.4344L9.36859 23.8255C8.46805 24.0953 7.49835 24.0101 6.65874 23.5872L0.0426912 20.2548C0.0202644 20.2435 0.0132379 20.2149 0.0278974 20.1945L13.1806 1.90248Z" fill="#422D5F"/>
</svg>
