<svg width="124" height="25" viewBox="0 0 124 25" fill="none" xmlns="http://www.w3.org/2000/svg">
<path d="M101.42 18.1243C101.36 18.142 101.334 18.2124 101.368 18.2652C102.351 19.8038 104.066 20.7837 106.188 20.7837C107.34 20.7837 108.412 20.4549 109.199 19.8629C109.989 19.2693 110.493 18.4099 110.493 17.3641C110.493 16.2779 110.101 15.5236 109.398 14.9728C108.705 14.4303 107.718 14.092 106.54 13.8054C105.882 13.6446 105.403 13.5214 105.089 13.3709C104.933 13.2965 104.829 13.2206 104.764 13.1403C104.702 13.0636 104.67 12.9762 104.67 12.864C104.67 12.6667 104.783 12.4956 105.023 12.3663C105.266 12.2354 105.625 12.1576 106.068 12.1576C106.798 12.1576 107.403 12.2771 107.804 12.8034C107.834 12.8435 107.863 12.8981 107.886 12.9462C107.914 13.0021 107.972 13.04 108.032 13.0223L110.461 12.2938C110.517 12.277 110.551 12.2181 110.532 12.1619C110.482 12.0135 110.406 11.8575 110.349 11.7629C109.625 10.5732 108.199 9.49933 106.002 9.49933C104.829 9.49933 103.767 9.8251 102.995 10.4138C102.221 11.0046 101.741 11.8587 101.741 12.897C101.741 14.024 102.168 14.7925 102.899 15.3396C103.62 15.8787 104.629 16.1973 105.784 16.4563C106.431 16.6001 106.874 16.7179 107.155 16.8635C107.294 16.9351 107.383 17.0085 107.439 17.086C107.492 17.1612 107.52 17.2493 107.52 17.3641C107.52 17.599 107.393 17.7889 107.155 17.9271C106.912 18.0676 106.563 18.1475 106.156 18.1475C105.445 18.1475 104.709 17.9703 104.133 17.3779C104.104 17.348 104.061 17.3358 104.02 17.3476L101.42 18.1243Z" fill="currentcolor"/>
<path d="M115.356 5.61485C114.307 5.9296 113.589 6.89509 113.589 7.99022V20.4403C113.589 20.5011 113.638 20.5504 113.699 20.5504H116.584C116.645 20.5504 116.694 20.5011 116.694 20.4403V14.5011C116.694 13.8075 116.953 13.2827 117.35 12.9299C117.749 12.575 118.296 12.3864 118.882 12.3864C119.462 12.3864 119.962 12.5741 120.318 12.9248C120.672 13.2749 120.895 13.8003 120.895 14.5011V20.4403C120.895 20.5011 120.944 20.5504 121.005 20.5504H123.89C123.951 20.5504 124 20.5011 124 20.4403V13.7749C124 12.4711 123.557 11.3962 122.793 10.6472C122.03 9.89859 120.957 9.48604 119.717 9.48604C118.359 9.48604 117.32 10.0102 116.694 10.611V5.34682C116.694 5.28037 116.63 5.23271 116.566 5.25181L115.356 5.61485Z" fill="currentcolor"/>
<path fill-rule="evenodd" clip-rule="evenodd" d="M73.7799 20.5176C73.7192 20.5176 73.67 20.4683 73.67 20.4075V7.97803C73.67 6.88284 74.3884 5.91732 75.4374 5.60262L76.5922 5.25616C76.6559 5.23707 76.7199 5.28473 76.7199 5.35118V10.7135C77.4439 9.9555 78.509 9.45323 80.0511 9.45323C83.1263 9.45323 85.3006 11.8034 85.3006 15.0844C85.3006 18.3423 83.1274 20.7376 80.0511 20.7376C79.3056 20.7376 78.6356 20.6151 78.0607 20.3973C77.5259 20.2385 77.1839 20.003 76.9872 19.7988C76.9031 19.7323 76.8232 19.6629 76.7476 19.5908L76.7074 20.4129C76.7045 20.4715 76.6562 20.5176 76.5976 20.5176H73.7799ZM76.7529 15.0734C76.7529 13.4635 77.9027 12.2655 79.4798 12.2655C81.0782 12.2655 82.1957 13.4408 82.1957 15.0734C82.1957 16.6766 81.0639 17.9253 79.4798 17.9253C77.895 17.9253 76.7529 16.6758 76.7529 15.0734Z" fill="currentcolor"/>
<path d="M92.4267 20.7842C93.8622 20.7842 94.9437 20.235 95.5772 19.5678L95.6166 20.4042C95.6194 20.4629 95.6677 20.5091 95.7264 20.5091H98.4672C98.5279 20.5091 98.5771 20.4598 98.5771 20.399V9.5897C98.5771 9.52324 98.513 9.47557 98.4493 9.4947L95.6069 10.3487C95.5335 10.3708 95.4832 10.4383 95.4832 10.515V15.7801C95.4832 16.4735 95.2243 16.9951 94.8241 17.3451C94.4214 17.6972 93.8656 17.8838 93.2617 17.8838C92.676 17.8838 92.1696 17.6983 91.8104 17.35C91.4522 17.0026 91.227 16.4803 91.227 15.7801V9.57399C91.227 9.50751 91.1629 9.45985 91.0992 9.479L88.2567 10.3342C88.1833 10.3563 88.1331 10.4239 88.1331 10.5005V16.5063C88.1331 17.8099 88.5734 18.8823 89.3374 19.6287C90.1009 20.3747 91.1763 20.7842 92.4267 20.7842Z" fill="currentcolor"/>
<path fill-rule="evenodd" clip-rule="evenodd" d="M36.9326 20.4016C36.911 20.4586 36.8565 20.4963 36.7956 20.4963H33.59C33.5121 20.4963 33.4589 20.4174 33.4881 20.345L39.5336 5.34175C39.5504 5.30013 39.5907 5.27288 39.6355 5.27288H43.0829C43.1277 5.27288 43.168 5.3001 43.1847 5.34168L49.2413 20.345C49.2705 20.4173 49.2174 20.4963 49.1394 20.4963H45.9337C45.8727 20.4963 45.8181 20.4584 45.7966 20.4012L44.7336 17.5695H38.0064L36.9326 20.4016ZM43.9737 15.0631H38.7447L38.7444 15.0639H43.974L43.9737 15.0631ZM38.9524 14.9223H43.7666L41.3696 8.89569L38.9524 14.9223Z" fill="currentcolor"/>
<path d="M55.4484 20.3862C55.4484 20.447 55.3992 20.4963 55.3385 20.4963H52.4534C52.3927 20.4963 52.3435 20.447 52.3435 20.3862V10.4543C52.3435 10.3777 52.3938 10.3101 52.4672 10.2881L55.1845 9.47304C55.247 9.4543 55.3102 9.49993 55.3122 9.56513L55.3441 10.6473C55.9719 9.98758 57.0554 9.4319 58.4499 9.4319C60.0026 9.4319 61.3175 10.0479 62.0017 11.1797C62.7956 10.1209 64.1176 9.4319 65.6462 9.4319C66.8855 9.4319 67.9581 9.8357 68.7217 10.5804C69.4859 11.3256 69.9288 12.4009 69.9288 13.7208V20.3862C69.9288 20.447 69.8797 20.4963 69.819 20.4963H66.9339C66.8732 20.4963 66.824 20.447 66.824 20.3862V14.4469C66.824 13.7447 66.6085 13.2191 66.2631 12.8694C65.9175 12.5196 65.4285 12.3322 64.8552 12.3322C64.2791 12.3322 63.7336 12.5133 63.3345 12.8566C62.9381 13.1976 62.6776 13.7056 62.6776 14.3809V20.3862C62.6776 20.447 62.6284 20.4963 62.5677 20.4963H59.6827C59.622 20.4963 59.5728 20.447 59.5728 20.3862V14.4469C59.5728 13.7452 59.3548 13.2194 59.0091 12.8694C58.6632 12.5192 58.1766 12.3322 57.6149 12.3322C57.0347 12.3322 56.4929 12.5207 56.0979 12.8753C55.705 13.228 55.4484 13.7529 55.4484 14.4469V20.3862Z" fill="currentcolor"/>
<path d="M13.6199 2.16611C14.953 0.312115 17.4361 -0.297732 19.4764 0.727755L24.1352 3.06935C24.1584 3.08101 24.1657 3.11065 24.1506 3.13173L9.39625 23.6401C9.3727 23.6729 9.40406 23.7168 9.44268 23.7052L13.7792 22.4024C14.2249 22.2685 14.6139 21.9911 14.8856 21.6133L24.1035 8.79739C24.1274 8.7641 24.18 8.78104 24.18 8.82204L24.18 20.4966C24.18 20.5279 24.1469 20.5484 24.1189 20.5343L18.9643 17.9593C18.9458 17.95 18.9233 17.9556 18.9112 17.9724L15.585 22.5935C15.313 22.9714 14.9237 23.2488 14.4776 23.3824L9.68087 24.8199C8.75032 25.0988 7.7483 25.0106 6.88069 24.5737L0.0441122 21.1302C0.0209379 21.1186 0.0136771 21.0889 0.0288252 21.0679L13.6199 2.16611Z" fill="currentcolor"/>
</svg>