<svg width="28" height="29" viewBox="0 0 28 29" fill="none" xmlns="http://www.w3.org/2000/svg">
<path d="M15.7716 2.34019C17.3153 0.181378 20.1907 -0.528731 22.5533 0.665352L27.9482 3.39192C27.975 3.4055 27.9835 3.44001 27.9659 3.46456L10.8807 27.3447C10.8534 27.3828 10.8897 27.434 10.9344 27.4205L15.9561 25.9035C16.4722 25.7476 16.9226 25.4245 17.2373 24.9846L27.9114 10.0617C27.9391 10.0229 28 10.0426 28 10.0904L28 23.6843C28 23.7208 27.9617 23.7446 27.9292 23.7283L21.9603 20.7299C21.9389 20.7191 21.9128 20.7255 21.8988 20.7451L18.0471 26.1259C17.7322 26.566 17.2813 26.8889 16.7648 27.0446L11.2103 28.7184C10.1327 29.0431 8.97239 28.9405 7.96772 28.4317L0.0510793 24.4221C0.0242439 24.4085 0.015836 24.3741 0.0333773 24.3495L15.7716 2.34019Z" fill="currentcolor"/>
</svg>
