<svg width="661" height="396" viewBox="0 0 661 396" fill="currentcolor" xmlns="http://www.w3.org/2000/svg">
<path d="M496.343 375.819C495.905 375.948 495.714 376.462 495.96 376.846C503.126 388.066 515.636 395.211 531.112 395.211C539.508 395.211 547.324 392.813 553.068 388.497C558.828 384.168 562.5 377.902 562.5 370.276C562.5 362.356 559.645 356.855 554.516 352.839C549.463 348.883 542.266 346.417 533.678 344.327C528.874 343.154 525.388 342.256 523.092 341.158C521.956 340.616 521.198 340.062 520.724 339.477C520.272 338.917 520.04 338.281 520.04 337.462C520.04 336.023 520.866 334.776 522.615 333.833C524.387 332.878 527.005 332.311 530.231 332.311C535.557 332.311 539.971 333.182 542.89 337.02C543.112 337.313 543.319 337.711 543.494 338.061C543.697 338.469 544.12 338.745 544.557 338.617L562.263 333.304C562.678 333.182 562.922 332.752 562.783 332.342C562.416 331.261 561.868 330.123 561.448 329.433C556.172 320.758 545.771 312.928 529.75 312.928C521.199 312.928 513.458 315.303 507.829 319.596C502.181 323.903 498.682 330.132 498.682 337.703C498.682 345.92 501.792 351.524 507.125 355.514C512.38 359.445 519.739 361.768 528.166 363.657C532.878 364.705 536.108 365.564 538.162 366.625C539.173 367.147 539.825 367.683 540.227 368.248C540.617 368.796 540.822 369.439 540.822 370.276C540.822 371.989 539.898 373.374 538.159 374.381C536.391 375.406 533.842 375.988 530.872 375.988C525.69 375.988 520.327 374.696 516.123 370.377C515.91 370.158 515.595 370.07 515.303 370.156L496.343 375.819Z" fill="currentcolor"/>
<path d="M597.189 284.834C589.999 286.992 585.075 293.61 585.075 301.117V392.707C585.075 393.15 585.434 393.51 585.876 393.51H606.914C607.356 393.51 607.715 393.15 607.715 392.707V349.399C607.715 344.342 609.604 340.515 612.498 337.942C615.408 335.355 619.4 333.979 623.673 333.979C627.898 333.979 631.549 335.348 634.139 337.906C636.725 340.458 638.35 344.29 638.35 349.399V392.707C638.35 393.15 638.709 393.51 639.152 393.51H660.189C660.631 393.51 660.99 393.15 660.99 392.707V344.104C660.99 334.597 657.759 326.759 652.19 321.297C646.625 315.839 638.804 312.831 629.762 312.831C619.859 312.831 612.28 316.652 607.715 321.033V282.913C607.715 282.297 607.12 281.854 606.53 282.032L597.189 284.834Z" fill="currentcolor"/>
<path fill-rule="evenodd" clip-rule="evenodd" d="M294.633 393.271C294.191 393.271 293.832 392.911 293.832 392.468V301.028C293.832 293.521 298.756 286.902 305.947 284.745L314.886 282.063C315.477 281.886 316.071 282.328 316.071 282.945V321.781C321.351 316.254 329.117 312.591 340.362 312.591C362.786 312.591 378.64 329.728 378.64 353.653C378.64 377.409 362.793 394.875 340.362 394.875C334.926 394.875 330.04 393.982 325.848 392.394C321.948 391.235 319.454 389.519 318.02 388.029C317.407 387.545 316.824 387.038 316.273 386.513L315.98 392.507C315.959 392.935 315.607 393.271 315.179 393.271H294.633ZM316.312 353.573C316.312 341.834 324.696 333.098 336.196 333.098C347.851 333.098 356 341.668 356 353.573C356 365.263 347.747 374.368 336.196 374.368C324.64 374.368 316.312 365.257 316.312 353.573Z" fill="currentcolor"/>
<path d="M430.671 395.214C441.139 395.214 449.025 391.21 453.644 386.345L453.931 392.444C453.951 392.872 454.304 393.209 454.732 393.209H474.717C475.16 393.209 475.518 392.849 475.518 392.406V313.852C475.518 313.235 474.924 312.793 474.333 312.97L454.106 319.047C453.425 319.252 452.959 319.879 452.959 320.59V358.726C452.959 363.782 451.071 367.586 448.152 370.137C445.216 372.705 441.163 374.066 436.76 374.066C432.489 374.066 428.796 372.713 426.177 370.173C423.565 367.64 421.923 363.832 421.923 358.726V313.737C421.923 313.12 421.328 312.678 420.737 312.856L400.51 318.942C399.829 319.146 399.363 319.773 399.363 320.484V364.021C399.363 373.527 402.573 381.346 408.144 386.789C413.711 392.229 421.553 395.214 430.671 395.214Z" fill="currentcolor"/>
<path fill-rule="evenodd" clip-rule="evenodd" d="M26.1112 392.425C25.9537 392.84 25.5562 393.115 25.1124 393.115H1.73725C1.16934 393.115 0.781677 392.54 0.994199 392.012L45.0771 282.611C45.1994 282.308 45.4934 282.109 45.8202 282.109H70.9577C71.2842 282.109 71.5781 282.308 71.7005 282.611L115.864 392.012C116.077 392.539 115.689 393.115 115.121 393.115H91.7457C91.3007 393.115 90.9023 392.839 90.7457 392.422L82.9947 371.774H33.941L26.1112 392.425ZM77.4535 353.498H39.3245L39.3221 353.504H77.4559L77.4535 353.498ZM40.839 352.471H75.9436L58.4651 308.526L40.839 352.471Z" fill="currentcolor"/>
<path d="M161.124 392.313C161.124 392.756 160.766 393.115 160.323 393.115H139.286C138.843 393.115 138.485 392.756 138.485 392.313V320.148C138.485 319.437 138.951 318.809 139.633 318.605L158.954 312.81C159.534 312.636 160.121 313.059 160.139 313.664L160.364 321.298C164.942 316.488 172.843 312.436 183.011 312.436C194.333 312.436 203.921 316.927 208.91 325.181C214.699 317.46 224.339 312.436 235.485 312.436C244.522 312.436 252.343 315.38 257.911 320.81C263.484 326.244 266.714 334.085 266.714 343.709V392.313C266.714 392.756 266.355 393.115 265.912 393.115H244.875C244.432 393.115 244.074 392.756 244.074 392.313V349.005C244.074 343.884 242.502 340.051 239.984 337.502C237.464 334.951 233.898 333.584 229.717 333.584C225.516 333.584 221.539 334.905 218.629 337.408C215.738 339.895 213.839 343.599 213.839 348.523V392.313C213.839 392.756 213.48 393.115 213.038 393.115H192C191.558 393.115 191.199 392.756 191.199 392.313V349.005C191.199 343.888 189.609 340.053 187.089 337.502C184.567 334.948 181.019 333.584 176.923 333.584C172.692 333.584 168.741 334.958 165.861 337.544C162.996 340.116 161.124 343.944 161.124 349.005V392.313Z" fill="#"/>
<path d="M335.471 17.2884C346.773 1.57006 367.825 -3.60027 385.123 5.09389L424.621 24.9461C424.818 25.045 424.879 25.2963 424.751 25.475L299.662 199.347C299.463 199.625 299.729 199.997 300.056 199.899L336.821 188.854C340.6 187.718 343.898 185.366 346.202 182.163L424.352 73.5089C424.554 73.2267 425 73.3703 425 73.7179L425 172.695C425 172.962 424.72 173.135 424.482 173.016L380.781 151.184C380.624 151.106 380.433 151.153 380.331 151.295L352.131 190.473C349.825 193.677 346.524 196.029 342.743 197.162L302.075 209.349C294.186 211.713 285.691 210.966 278.335 207.261L220.374 178.068C220.178 177.969 220.116 177.718 220.245 177.539L335.471 17.2884Z" fill="currentcolor"/>
</svg>
