<svg width="85" height="53" viewBox="0 0 85 53" fill="none" xmlns="http://www.w3.org/2000/svg">
<path d="M64.0436 49.5172C63.9879 49.5339 63.9635 49.6003 63.9948 49.6502C64.9069 51.1024 66.4991 52.0273 68.4687 52.0273C69.5373 52.0273 70.5321 51.717 71.2631 51.1582C71.9962 50.5979 72.4636 49.7868 72.4636 48.7996C72.4636 47.7745 72.1002 47.0625 71.4474 46.5426C70.8044 46.0305 69.8883 45.7113 68.7953 45.4407C68.184 45.289 67.7402 45.1727 67.448 45.0306C67.3034 44.9604 67.2069 44.8888 67.1467 44.813C67.0891 44.7405 67.0596 44.6581 67.0596 44.5521C67.0596 44.366 67.1647 44.2045 67.3873 44.0825C67.6128 43.9589 67.9461 43.8854 68.3566 43.8854C69.0345 43.8854 69.5963 43.9982 69.9677 44.4949C69.9961 44.5328 70.0224 44.5844 70.0446 44.6298C70.0704 44.6825 70.1243 44.7183 70.1799 44.7016L72.4334 44.014C72.4862 43.9982 72.5173 43.9425 72.4996 43.8895C72.4529 43.7495 72.3831 43.6022 72.3297 43.5128C71.6582 42.39 70.3344 41.3764 68.2954 41.3764C67.2071 41.3764 66.2218 41.6839 65.5054 42.2396C64.7866 42.7971 64.3413 43.6033 64.3413 44.5833C64.3413 45.647 64.7371 46.3724 65.4159 46.8888C66.0846 47.3977 67.0213 47.6984 68.0938 47.9428C68.6935 48.0786 69.1046 48.1897 69.3661 48.3271C69.4947 48.3947 69.5776 48.464 69.6289 48.5372C69.6785 48.6081 69.7045 48.6913 69.7045 48.7996C69.7045 49.0214 69.5869 49.2006 69.3656 49.3311C69.1407 49.4637 68.8162 49.5391 68.4381 49.5391C67.7787 49.5391 67.0961 49.3718 66.561 48.8127C66.534 48.7844 66.4939 48.7729 66.4567 48.7841L64.0436 49.5172Z" fill="currentcolor"/>
<path d="M76.8786 37.74C75.9634 38.0192 75.3368 38.8759 75.3368 39.8476V51.7032C75.3368 51.7606 75.3824 51.8071 75.4387 51.8071H78.1162C78.1725 51.8071 78.2182 51.7606 78.2182 51.7032V46.0974C78.2182 45.4427 78.4586 44.9474 78.8269 44.6143C79.1973 44.2794 79.7054 44.1013 80.2493 44.1013C80.7869 44.1013 81.2516 44.2785 81.5813 44.6096C81.9104 44.94 82.1172 45.4359 82.1172 46.0974V51.7032C82.1172 51.7606 82.1629 51.8071 82.2192 51.8071H84.8967C84.953 51.8071 84.9987 51.7606 84.9987 51.7032V45.412C84.9987 44.1813 84.5874 43.1668 83.8787 42.4598C83.1704 41.7532 82.175 41.3638 81.0242 41.3638C79.7639 41.3638 78.7992 41.8586 78.2182 42.4256V37.4913C78.2182 37.4115 78.1425 37.3542 78.0674 37.3772L76.8786 37.74Z" fill="currentcolor"/>
<path fill-rule="evenodd" clip-rule="evenodd" d="M38.3714 51.7761C38.3151 51.7761 38.2695 51.7296 38.2695 51.6722V39.8361C38.2695 38.8644 38.8962 38.0077 39.8114 37.7284L40.9491 37.3813C41.0243 37.3583 41.0999 37.4156 41.0999 37.4954V42.5224C41.7718 41.807 42.7603 41.3329 44.1914 41.3329C47.0454 41.3329 49.0632 43.5511 49.0632 46.648C49.0632 49.723 47.0464 51.9838 44.1914 51.9838C43.4996 51.9838 42.8777 51.8682 42.3443 51.6626C41.8479 51.5127 41.5305 51.2905 41.348 51.0977C41.2699 51.0349 41.1958 50.9694 41.1256 50.9014L41.0883 51.6773C41.0856 51.7327 41.0408 51.7761 40.9864 51.7761H38.3714ZM41.1305 46.6376C41.1305 45.1181 42.1976 43.9873 43.6612 43.9873C45.1446 43.9873 46.1817 45.0966 46.1817 46.6376C46.1817 48.1507 45.1313 49.3294 43.6612 49.3294C42.1905 49.3294 41.1305 48.15 41.1305 46.6376Z" fill="currentcolor"/>
<path d="M55.6854 52.0277C57.0176 52.0277 58.0213 51.5094 58.6092 50.8797L58.6457 51.6691C58.6483 51.7245 58.6931 51.7681 58.7476 51.7681H61.2912C61.3475 51.7681 61.3932 51.7216 61.3932 51.6642V41.496C61.3932 41.4162 61.3175 41.3589 61.2423 41.3819L58.668 42.1685C58.5813 42.195 58.5219 42.2762 58.5219 42.3683V47.3046C58.5219 47.9591 58.2817 48.4514 57.9103 48.7817C57.5365 49.114 57.0207 49.2902 56.4603 49.2902C55.9167 49.2902 55.4467 49.1151 55.1134 48.7863C54.7809 48.4585 54.5719 47.9655 54.5719 47.3046V41.4812C54.5719 41.4014 54.4962 41.3441 54.421 41.3671L51.8467 42.1549C51.76 42.1814 51.7007 42.2625 51.7007 42.3546V47.99C51.7007 49.2204 52.1093 50.2326 52.8183 50.9372C53.5269 51.6413 54.5249 52.0277 55.6854 52.0277Z" fill="currentcolor"/>
<path fill-rule="evenodd" clip-rule="evenodd" d="M4.19592 51.6667C4.17587 51.7204 4.12528 51.756 4.0688 51.756H1.09378C1.0215 51.756 0.972162 51.6815 0.999211 51.6133L6.60976 37.4522C6.62532 37.4129 6.66274 37.3872 6.70433 37.3872H9.90365C9.94522 37.3872 9.98262 37.4129 9.9982 37.4521L15.619 51.6132C15.6461 51.6815 15.5967 51.756 15.5244 51.756H12.5494C12.4928 51.756 12.4421 51.7202 12.4221 51.6662L11.4356 48.9936H5.19244L4.19592 51.6667ZM10.7304 46.6278H5.87761L5.87731 46.6286H10.7307L10.7304 46.6278ZM6.07037 46.4949H10.5382L8.31369 40.8066L6.07037 46.4949Z" fill="currentcolor"/>
<path d="M21.3794 51.6521C21.3794 51.7095 21.3338 51.756 21.2774 51.756H18.6C18.5436 51.756 18.498 51.7095 18.498 51.6521V42.311C18.498 42.2189 18.5574 42.1378 18.6441 42.1113L21.1032 41.3611C21.177 41.3386 21.2517 41.3934 21.254 41.4718L21.2827 42.4599C21.8653 41.8372 22.8708 41.3128 24.165 41.3128C25.6059 41.3128 26.8263 41.8941 27.4612 42.9625C28.198 41.963 29.4249 41.3128 30.8435 41.3128C31.9936 41.3128 32.9891 41.6939 33.6978 42.3967C34.407 43.1001 34.818 44.115 34.818 45.3609V51.6521C34.818 51.7095 34.7724 51.756 34.7161 51.756H32.0386C31.9822 51.756 31.9366 51.7095 31.9366 51.6521V46.0463C31.9366 45.3835 31.7366 44.8873 31.4161 44.5573C31.0953 44.2271 30.6415 44.0503 30.1094 44.0503C29.5748 44.0503 29.0686 44.2211 28.6982 44.5452C28.3302 44.8671 28.0885 45.3465 28.0885 45.984V51.6521C28.0885 51.7095 28.0429 51.756 27.9866 51.756H25.3091C25.2527 51.756 25.2071 51.7095 25.2071 51.6521V46.0463C25.2071 45.3839 25.0048 44.8876 24.684 44.5573C24.363 44.2267 23.9114 44.0503 23.3901 44.0503C22.8517 44.0503 22.3488 44.2281 21.9822 44.5628C21.6176 44.8957 21.3794 45.3912 21.3794 46.0463V51.6521Z" fill="currentcolor"/>
<path d="M43.569 3.10837C45.0075 1.07376 47.6868 0.404505 49.8884 1.52989L54.9154 4.0996C54.9404 4.11239 54.9482 4.14492 54.9319 4.16805L39.0116 26.6743C38.9862 26.7102 39.02 26.7585 39.0617 26.7458L43.7409 25.3161C44.2218 25.1691 44.6415 24.8647 44.9347 24.45L54.8811 10.3856C54.9069 10.3491 54.9636 10.3677 54.9636 10.4127L54.9636 23.2245C54.9636 23.2589 54.928 23.2814 54.8977 23.266L49.3358 20.4401C49.3158 20.4299 49.2915 20.436 49.2784 20.4544L45.6894 25.5257C45.3959 25.9404 44.9758 26.2448 44.4945 26.3915L39.3187 27.969C38.3146 28.275 37.2334 28.1783 36.2972 27.6988L28.9203 23.9199C28.8953 23.9071 28.8875 23.8746 28.9038 23.8515L43.569 3.10837Z" fill="currentcolor"/>
</svg>