<svg width="1000" height="200" viewBox="0 0 1000 200" fill="currentcolor" xmlns="http://www.w3.org/2000/svg">
<path d="M817.906 144.549C817.422 144.691 817.21 145.259 817.482 145.685C825.408 158.093 839.243 165.996 856.359 165.996C865.644 165.996 874.289 163.344 880.641 158.57C887.012 153.782 891.073 146.852 891.073 138.418C891.073 129.659 887.915 123.575 882.243 119.134C876.655 114.758 868.695 112.03 859.197 109.719C853.884 108.422 850.028 107.429 847.489 106.215C846.233 105.615 845.394 105.003 844.87 104.355C844.37 103.736 844.114 103.032 844.114 102.127C844.114 100.536 845.027 99.1559 846.962 98.1136C848.921 97.0576 851.817 96.4302 855.384 96.4302C861.275 96.4302 866.157 97.3937 869.385 101.638C869.631 101.962 869.859 102.402 870.053 102.79C870.277 103.241 870.745 103.546 871.228 103.404L890.811 97.5286C891.269 97.3934 891.54 96.9178 891.386 96.4646C890.98 95.2684 890.374 94.01 889.91 93.2468C884.075 83.653 872.571 74.9926 854.853 74.9926C845.395 74.9926 836.834 77.6198 830.608 82.3677C824.362 87.1315 820.492 94.0198 820.492 102.393C820.492 111.482 823.932 117.679 829.83 122.092C835.642 126.439 843.781 129.008 853.1 131.097C858.311 132.257 861.884 133.207 864.156 134.381C865.274 134.958 865.995 135.55 866.44 136.176C866.872 136.781 867.097 137.492 867.097 138.418C867.097 140.313 866.075 141.844 864.153 142.959C862.198 144.091 859.379 144.736 856.093 144.736C850.363 144.736 844.431 143.306 839.781 138.53C839.546 138.288 839.198 138.19 838.875 138.285L817.906 144.549Z" fill="currentcolor"/>
<path d="M930.292 43.6662C921.833 46.2044 916.04 53.9906 916.04 62.8224V163.226C916.04 163.717 916.437 164.114 916.926 164.114H940.193C940.682 164.114 941.079 163.717 941.079 163.226V115.329C941.079 109.736 943.168 105.504 946.369 102.658C949.587 99.7964 954.003 98.275 958.729 98.275C963.401 98.275 967.439 99.7889 970.304 102.618C973.164 105.441 974.961 109.678 974.961 115.329V163.226C974.961 163.717 975.358 164.114 975.847 164.114H999.114C999.603 164.114 1000 163.717 1000 163.226V109.473C1000 98.9584 996.426 90.2897 990.268 84.2493C984.113 78.2124 975.463 74.8854 965.463 74.8854C954.511 74.8854 946.128 79.1123 941.079 83.9573V41.5046C941.079 40.9687 940.563 40.5844 940.049 40.7384L930.292 43.6662Z" fill="currentcolor"/>
<path fill-rule="evenodd" clip-rule="evenodd" d="M594.999 163.849C594.51 163.849 594.113 163.452 594.113 162.962V62.724C594.113 53.8919 599.907 46.1054 608.366 43.5675L617.679 40.7735C618.193 40.6195 618.709 41.0039 618.709 41.5397V84.7842C624.548 78.6714 633.137 74.6208 645.574 74.6208C670.374 74.6208 687.908 93.5734 687.908 120.034C687.908 146.307 670.382 165.624 645.574 165.624C639.561 165.624 634.158 164.636 629.522 162.88C625.209 161.599 622.451 159.7 620.865 158.053C620.186 157.517 619.542 156.957 618.932 156.375L618.608 163.005C618.585 163.478 618.195 163.849 617.723 163.849H594.999ZM618.975 119.945C618.975 106.962 628.247 97.3005 640.966 97.3005C653.856 97.3005 662.869 106.778 662.869 119.945C662.869 132.874 653.741 142.944 640.966 142.944C628.186 142.944 618.975 132.868 618.975 119.945Z" fill="currentcolor"/>
<path d="M745.377 165.999C756.953 165.999 765.675 161.571 770.784 156.19L771.102 162.935C771.124 163.409 771.514 163.781 771.987 163.781H794.09C794.58 163.781 794.977 163.384 794.977 162.894V75.7214C794.977 75.1854 794.46 74.801 793.946 74.9552L771.023 81.8424C770.431 82.0203 770.026 82.5652 770.026 83.1832V125.644C770.026 131.236 767.938 135.443 764.711 138.265C761.463 141.104 756.98 142.61 752.111 142.61C747.387 142.61 743.303 141.113 740.407 138.304C737.518 135.503 735.702 131.291 735.702 125.644V75.5947C735.702 75.0586 735.184 74.6742 734.671 74.8286L711.748 81.7257C711.156 81.9037 710.751 82.4485 710.751 83.0664V131.5C710.751 142.013 714.302 150.661 720.463 156.681C726.62 162.697 735.293 165.999 745.377 165.999Z" fill="currentcolor"/>
<path fill-rule="evenodd" clip-rule="evenodd" d="M297.844 162.914C297.67 163.374 297.23 163.677 296.739 163.677H270.887C270.259 163.677 269.83 163.041 270.065 162.458L318.82 41.4637C318.955 41.1281 319.28 40.9083 319.641 40.9083H347.443C347.804 40.9083 348.129 41.1278 348.264 41.4632L397.108 162.457C397.343 163.041 396.914 163.677 396.286 163.677H370.434C369.941 163.677 369.501 163.372 369.328 162.911L360.755 140.075H306.503L297.844 162.914ZM354.627 119.862H312.457L312.455 119.868H354.63L354.627 119.862ZM314.132 118.726H352.957L333.626 70.1245L314.132 118.726Z" fill="currentcolor"/>
<path d="M447.164 162.79C447.164 163.28 446.768 163.677 446.278 163.677H423.011C422.522 163.677 422.125 163.28 422.125 162.79V82.6943C422.125 82.076 422.531 81.5309 423.123 81.3533L445.036 74.7806C445.54 74.6295 446.05 74.9974 446.066 75.5233L446.324 84.2501C451.387 78.9301 460.124 74.4488 471.371 74.4488C483.892 74.4488 494.496 79.4163 500.014 88.5441C506.416 80.0049 517.078 74.4488 529.405 74.4488C539.399 74.4488 548.05 77.7053 554.208 83.7106C560.37 89.7205 563.942 98.392 563.942 109.036V162.79C563.942 163.28 563.546 163.677 563.056 163.677H539.79C539.3 163.677 538.903 163.28 538.903 162.79V114.893C538.903 109.23 537.165 104.991 534.38 102.171C531.593 99.3493 527.649 97.8385 523.026 97.8385C518.38 97.8385 513.981 99.2985 510.762 102.067C507.565 104.818 505.465 108.914 505.465 114.36V162.79C505.465 163.28 505.068 163.677 504.579 163.677H481.312C480.822 163.677 480.426 163.28 480.426 162.79V114.893C480.426 109.233 478.668 104.993 475.88 102.171C473.09 99.3464 469.167 97.8385 464.637 97.8385C459.958 97.8385 455.588 99.3581 452.402 102.218C449.234 105.062 447.164 109.295 447.164 114.893V162.79Z" fill="currentcolor"/>
<path d="M109.838 15.854C120.589 0.902434 140.614 -4.01568 157.068 4.25437L194.639 23.1382C194.826 23.2322 194.885 23.4713 194.763 23.6413L75.7765 189.032C75.5866 189.296 75.8394 189.65 76.1508 189.557L111.123 179.05C114.717 177.97 117.854 175.733 120.045 172.686L194.383 69.332C194.576 69.0636 195 69.2002 195 69.5309L195 163.68C195 163.933 194.734 164.098 194.507 163.985L152.938 143.218C152.789 143.144 152.607 143.189 152.51 143.324L125.686 180.591C123.492 183.638 120.352 185.875 116.755 186.953L78.0718 198.546C70.5673 200.795 62.4865 200.084 55.4897 196.56L0.355984 168.791C0.169094 168.696 0.11054 168.458 0.232702 168.288L109.838 15.854Z" fill="currentcolor"/>
</svg>
