<svg width="23" height="18" viewBox="0 0 23 18" fill="none" xmlns="http://www.w3.org/2000/svg">
<path d="M5.44533 16.386C6.62059 12.9538 7.55556 9.41151 8.89213 6.05893C9.47002 4.60938 9.95457 3.27116 10.6398 1.90087C10.978 1.22464 11.0402 0.91199 11.4382 2.0854C12.4888 5.18275 13.3454 8.35046 14.4654 11.4226C14.9694 12.805 15.3166 14.532 16.0591 15.8021C16.121 15.9079 16.7672 16.9338 16.3776 16.9338C15.8473 16.9338 14.8279 15.9504 14.4376 15.679C13.0676 14.7269 11.8317 13.6927 10.6439 12.5174C8.33224 10.2302 5.82565 7.91007 3.06891 6.15734C2.87271 6.0326 1.09293 5.01761 1.84129 5.00096C5.82588 4.9123 9.82126 5.00096 13.807 5.00096C16.3461 5.00096 18.8447 4.77953 21.3748 4.77953C21.4901 4.77953 21.81 4.70352 21.5468 4.81643C20.1715 5.40646 18.8633 6.79112 17.687 7.68278C14.7497 9.90932 12.9297 11.4824 9.85991 13.5307C7.72816 14.9531 6.41548 15.9399 4.15026 17.0736" stroke="#EC6D75" stroke-width="1.5" stroke-linecap="round"/>
</svg>
