<svg width="200" height="206" viewBox="0 0 200 206" fill="currentcolor" xmlns="http://www.w3.org/2000/svg">
<path d="M112.655 16.623C123.681 1.288 144.219 -3.75622 161.095 4.72589L199.63 24.0939C199.822 24.1904 199.882 24.4356 199.757 24.6099L77.7194 194.241C77.5247 194.512 77.784 194.875 78.1034 194.78L113.972 184.004C117.659 182.896 120.876 180.601 123.124 177.476L199.367 71.4722C199.565 71.1969 200 71.337 200 71.6761L200 168.24C200 168.499 199.727 168.668 199.495 168.552L156.86 147.253C156.706 147.177 156.52 147.222 156.42 147.361L128.908 185.584C126.658 188.709 123.438 191.004 119.749 192.109L80.0736 203.999C72.3767 206.306 64.0887 205.577 56.9125 201.962L0.365061 173.481C0.17338 173.384 0.113324 173.139 0.238618 172.965L112.655 16.623Z" fill="currentcolor"/>
</svg>
