<svg width="18" height="19" viewBox="0 0 18 19" fill="none" xmlns="http://www.w3.org/2000/svg">
<path d="M4.91112 15.38C5.62184 11.8725 6.24526 9.97234 7.09009 6.53498C7.45537 5.04878 7.7535 3.67966 8.20979 2.26635C8.43496 1.56888 8.46389 1.25209 8.85961 2.40301C9.90414 5.44099 10.7984 8.56111 11.8967 11.5696C12.391 12.9234 12.7828 14.6317 13.4601 15.8587C13.5165 15.9609 14.1007 16.9492 13.7896 16.9727C13.3661 17.0046 12.4867 16.0813 12.157 15.8332C10.9998 14.9623 9.94417 14.0013 8.91765 12.8961C6.91982 10.7452 4.76415 8.57322 2.44636 6.98437C2.28141 6.87129 0.792759 5.96224 1.38927 5.90048C4.56537 5.57163 7.76185 5.41969 10.9447 5.17955C12.9724 5.02657 14.953 4.65431 16.9735 4.50187C17.0656 4.49493 17.3159 4.39955 17.1133 4.52847C16.0541 5.20211 15.1014 6.66733 14.2212 7.631C12.0233 10.0373 10.6743 11.7221 8.35884 13.9579C6.75088 15.5105 5.76812 16.5777 4.03442 17.8493" stroke="#EC6D75" stroke-width="1.5" stroke-linecap="round"/>
</svg>
