<svg width="102" height="11" viewBox="0 0 102 11" fill="none" xmlns="http://www.w3.org/2000/svg">
<path d="M0.9205 1.50338C15.3668 2.30056 41.3234 1.39045 55.7987 1.39045C64.3273 1.39045 72.8892 1.22048 81.4135 1.50334C85.3433 1.63374 89.1225 2.34794 93.0175 2.61812C94.6465 2.73112 103.578 2.59816 99.1659 2.97079C85.5027 4.12462 67.0393 5.38735 53.4435 7.06313C39.3278 8.80298 27.9552 9.26446 13.6854 9.26446C3.19109 9.26446 31.6202 8.52913 42.1145 8.50246C51.8771 8.47765 61.8954 7.93452 71.5974 8.99635C74.4906 9.313 83.2664 9.26446 80.3476 9.26446C73.5837 9.26446 66.8248 8.85559 60.0621 8.75646C48.2915 8.58393 36.3131 8.39603 24.7515 6.38579C24.3669 6.31893 19.6973 5.7619 19.6973 5.07346C19.6973 4.5815 38.8216 5.2559 40.0516 5.31335C51.6879 5.85679 63.3318 6.28485 74.9668 6.83735C77.451 6.95531 79.9944 7.23246 82.4793 7.23246" stroke="#EC6D75" stroke-width="1.5" stroke-linecap="round"/>
</svg>
