<svg width="18" height="17" viewBox="0 0 18 17" fill="none" xmlns="http://www.w3.org/2000/svg">
<path fill-rule="evenodd" clip-rule="evenodd" d="M8.99935 1.83366C5.31745 1.83366 2.33268 4.81843 2.33268 8.50033C2.33268 12.1822 5.31745 15.167 8.99935 15.167C12.6812 15.167 15.666 12.1822 15.666 8.50033C15.666 4.81843 12.6812 1.83366 8.99935 1.83366ZM0.666016 8.50033C0.666016 3.89795 4.39698 0.166992 8.99935 0.166992C13.6017 0.166992 17.3327 3.89795 17.3327 8.50033C17.3327 13.1027 13.6017 16.8337 8.99935 16.8337C4.39698 16.8337 0.666016 13.1027 0.666016 8.50033ZM8.99935 4.33366C9.45959 4.33366 9.83268 4.70676 9.83268 5.16699V8.50033C9.83268 8.96056 9.45959 9.33366 8.99935 9.33366C8.53911 9.33366 8.16602 8.96056 8.16602 8.50033V5.16699C8.16602 4.70676 8.53911 4.33366 8.99935 4.33366ZM8.16602 11.8337C8.16602 11.3734 8.53911 11.0003 8.99935 11.0003H9.00768C9.46792 11.0003 9.84102 11.3734 9.84102 11.8337C9.84102 12.2939 9.46792 12.667 9.00768 12.667H8.99935C8.53911 12.667 8.16602 12.2939 8.16602 11.8337Z" fill="#D94949"/>
</svg>
